<svg width="1250" height="1250" fill="none" xmlns="http://www.w3.org/2000/svg"><path d="M325 478v2c19 10 29 26 29 49 0 20-7 35-20 45a86 86 0 01-53 15h-79l-3-1-1-2V379l1-2 3-1h77c48 0 72 19 72 58 0 20-9 35-26 44zm-82-66l-2 2v48l2 1h36c9 0 17-2 22-7 5-4 8-10 8-18s-3-14-8-19c-5-4-13-7-22-7h-36zm38 140c9 0 17-2 22-7s8-12 8-20-3-15-8-19c-5-5-13-8-22-8h-38l-2 2v50l2 2h38zm224-74v2c19 10 29 26 29 49 0 20-7 35-20 45a86 86 0 01-53 15h-79l-3-1-1-2V379l1-2 3-1h77c48 0 72 19 72 58 0 20-9 35-26 44zm-82-66l-2 2v48l2 1h36c9 0 17-2 22-7 5-4 8-10 8-18s-3-14-8-19c-5-4-13-7-22-7h-36zm38 140c10 0 17-2 22-7s8-12 8-20-3-15-8-19c-5-5-13-8-22-8h-38l-2 2v50l2 2h38zm220-173l1-2 3-1h36l2 1 1 2v207l-1 2-2 1h-35l-4-2-79-131-1-1-1 2 1 129-2 2-2 1h-36l-3-1V379v-2l3-1h35c2 0 3 0 4 2l79 130 1 1 1-2-1-128zM312 667l1-2 2-1h36l3 1 1 2v207l-1 2-3 1h-36l-2-1-1-2v-85l-2-1h-67l-2 1v85l-1 2-2 1h-36l-3-1-1-2V667l1-2 3-1h36l2 1 1 2v82l2 2h67l2-2v-82zm129 213c-17 0-32-5-44-14s-20-21-25-36c-3-10-4-20-4-32s1-22 4-32c5-15 13-27 26-35 12-9 26-13 44-13 16 0 30 4 42 13 12 8 20 20 25 35a105 105 0 011 63c-5 16-13 28-25 37s-27 14-44 14zm0-37c7 0 13-2 17-6 5-4 8-10 10-17s3-14 3-22-1-15-3-21c-2-7-5-13-10-16-5-4-10-6-17-6s-13 2-17 6c-5 3-8 9-10 16-2 5-3 12-3 21l2 22c2 7 6 13 11 17 4 4 10 6 17 6zm89 34l-2-1-1-2V667l1-2 2-1h36l2 1 2 2v207l-2 2-2 1h-36zm153-210l1-2 3-1h36l2 1 1 2v207l-1 2-2 1h-36l-3-1-1-2v-11h-2c-8 11-20 17-35 17-14 0-26-4-37-12-10-8-17-19-22-33-3-11-5-23-5-37s2-27 6-38a60 60 0 0160-42c14 0 25 5 33 15l2 1v-67zm-6 163c4-8 6-18 6-31 0-14-2-25-7-32-4-8-11-12-20-12-10 0-17 4-22 12s-8 18-8 32c0 12 3 22 7 31 5 8 12 13 22 13s17-5 22-13zm90-127c-7 0-13-3-18-7-4-5-6-11-6-18s2-12 6-17c5-4 11-7 18-7s13 3 17 7c5 5 7 10 7 17a24 24 0 01-24 25zm-19 174l-2-1-1-2V724l1-3 2-1h36l3 1 1 3v150l-1 2-3 1h-36zm140-159c16 0 29 5 39 15s15 23 15 40v101l-1 2-2 1h-36l-3-1-1-2v-92c0-8-2-15-7-20-4-5-10-7-18-7-7 0-14 2-18 7-5 5-7 12-7 20v92l-1 2-3 1h-35l-3-1-1-2V724l1-2 3-2h35l3 2 1 2v11l1 1h1c8-12 20-18 37-18zm166 6v-2l3-2h36l2 2 2 2v139c0 27-8 46-24 57a96 96 0 01-59 17l-24-1c-2 0-3-2-3-4l2-32c0-2 1-3 4-3l20 2c13 0 23-3 30-9 7-5 11-15 11-27l-1-1h-1c-8 9-19 13-34 13-13 0-26-3-37-10-11-6-19-17-23-31-3-9-5-21-5-36 0-16 2-29 6-39 4-12 11-22 21-30 10-7 22-11 36-11 15 0 27 5 36 14h1l1-1v-7zm-3 99a133 133 0 002-40l-2-10c-2-5-5-10-9-13-5-3-10-5-16-5s-11 2-16 5c-4 3-7 8-9 13-3 6-5 14-5 25s2 19 4 24c2 6 5 10 10 14 4 3 10 5 16 5 7 0 12-2 16-5 5-4 8-8 9-13z" fill="url(#paint0_linear)"/><defs><linearGradient id="paint0_linear" x1="588.5" y1="182.1" x2="1003.1" y2="983.6" gradientUnits="userSpaceOnUse"><stop stop-color="#F19D2D"/><stop offset="1" stop-color="#DB5721"/></linearGradient></defs></svg>