<svg fill="none" xmlns="http://www.w3.org/2000/svg" viewBox="0 0 74 70"><rect x=".86" width="72.63" height="70" rx="12.89" fill="url(#paint0_linear)"/><path d="M50.89 51.65c0 .53-.42.95-.95.95H24.42a.95.95 0 01-.94-.95V18.33c0-.52.42-.94.94-.94h20.9c.22 0 .44.08.61.23l4.63 4.01c.21.18.33.44.33.72v29.3zM29.64 21.91a.95.95 0 00-.94.95v24.27c0 .52.42.94.95.94h15.07c.52 0 .95-.42.95-.94V22.86a.95.95 0 00-.95-.95H29.65z" fill="white"/><path d="M53.3 49.52c.07.52-.28 1-.8 1.07l-4.22.61-21.01 3.03a.96.96 0 01-1.09-.8l-5.1-32.96a.94.94 0 01.78-1.07l20.66-2.98c.23-.03.46.02.65.14l5.2 3.31c.23.15.39.4.43.66l4.5 29zM27.71 23.13a.93.93 0 00-.79 1.07l3.72 24c.08.52.57.88 1.09.8l14.9-2.14a.93.93 0 00.8-1.07l-3.73-24a.96.96 0 00-1.08-.8l-14.9 2.14z" fill="white" fill-opacity=".35"/><path d="M55.32 47.06a.92.92 0 01-.62 1.17l-4.08 1.2-20.31 6a.97.97 0 01-1.2-.63l-10.1-31.88a.93.93 0 01.63-1.17l19.97-5.9a.97.97 0 01.67.05l5.64 2.53c.25.12.44.33.52.6l8.88 28.03zM26 24.61a.92.92 0 00-.62 1.17l7.35 23.21c.16.5.7.79 1.2.64l14.4-4.26c.5-.14.79-.67.63-1.17L41.61 21a.97.97 0 00-1.2-.64l-14.4 4.26z" fill="white" fill-opacity=".07"/><defs><linearGradient id="paint0_linear" x1="37.18" y1="0" x2="37.18" y2="70" gradientUnits="userSpaceOnUse"><stop stop-color="#5DB5F5"/><stop offset="1" stop-color="#06539A"/></linearGradient></defs></svg>