<svg fill="none" xmlns="http://www.w3.org/2000/svg" viewBox="0 0 142 142"><rect width="142" height="142" rx="11" fill="#4763FF"/><path d="M99.8 71.75l-3.88 9.56h6.97c2.62 0 3.92 1.15 3.92 3.43 0 1.55-.57 2.76-1.71 3.65-1.15.86-2.73 1.3-4.77 1.3h-7.18c-2.26 0-4.06-.52-5.4-1.55a5.16 5.16 0 01-1.99-4.27c0-1.12.27-2.34.8-3.64l.57-1.37 2.9-7.11H78.86l-6.83 16.78C67.33 100.1 60.33 105.9 51 105.9c-4.95 0-9.04-1.55-12.26-4.66-3.2-3.08-4.8-7.01-4.8-11.8 0-3.7.93-7.22 2.8-10.58a26.36 26.36 0 017.92-8.69 35.65 35.65 0 0110.02-4.83 37.86 37.86 0 0111.28-1.79l4.97-.14 1.54-.04 6.83-16.78.39-1.01c1.17-2.8 3.01-4.2 5.53-4.2 1.15 0 2.1.34 2.88 1.04.77.68 1.15 1.51 1.15 2.5 0 .79-.32 1.99-.98 3.6l-6.02 14.85h11.17l6.76-16.64.42-1.05c1.2-2.87 3.06-4.3 5.61-4.3 1.1 0 2.03.34 2.8 1.04s1.16 1.57 1.16 2.6c0 .8-.34 2.03-1.02 3.71l-5.95 14.64h3.64c2.6 0 3.89 1.15 3.89 3.44 0 1.54-.57 2.75-1.72 3.64-1.14.87-2.72 1.3-4.73 1.3h-4.48zm-30.72 0H67.2c-6.91 0-12.43 1.57-16.57 4.73a19.29 19.29 0 00-5.08 5.64 12.4 12.4 0 00-1.85 6.27c0 2.43.73 4.44 2.2 6.02a7.22 7.22 0 005.57 2.42c4.95 0 9.05-4 12.3-12.02l5.32-13.06z" fill="white"/></svg>