<svg width="1287" height="1840" viewBox="0 0 1287 1840" fill="none" xmlns="http://www.w3.org/2000/svg">
<path fill-rule="evenodd" clip-rule="evenodd" d="M975.576 603.198C1048.02 581.213 1124.87 633.065 1182.65 681.983C1237.72 728.612 1280.92 794.128 1286.09 866.104C1290.82 931.834 1225.73 979.074 1208.58 1042.7C1189.88 1112.13 1230.15 1197.85 1182.26 1251.47C1133.74 1305.79 1047.92 1312 975.576 1303.57C907.918 1295.7 853.397 1250.78 801.133 1207.1C752.343 1166.32 702.507 1122.51 685.597 1061.22C669.064 1001.29 680.373 935.08 711.196 881.095C738.879 832.609 804.839 825.415 843.322 784.964C896.264 729.315 902.077 625.504 975.576 603.198Z" fill="url(#paint0_linear_455_2)" fill-opacity="0.04"/>
<path fill-rule="evenodd" clip-rule="evenodd" d="M432.027 1200.34C503.68 1193.35 532.327 1296.21 582.064 1348.26C620.686 1388.68 666.171 1420.45 690.468 1470.8C717.807 1527.45 738.125 1588.88 728.157 1650.99C717.126 1719.71 695.893 1801.82 632.667 1830.93C568.938 1860.27 499.344 1807.09 432.027 1787.33C385.908 1773.79 347.158 1750.1 301.93 1733.83C231.014 1708.32 133.457 1728.3 92.3413 1665.14C52.5019 1603.94 76.3885 1512.29 119.193 1453.12C158.937 1398.19 249.104 1418.2 301.84 1375.58C359.861 1328.7 357.783 1207.58 432.027 1200.34Z" fill="url(#paint1_linear_455_2)" fill-opacity="0.04"/>
<path fill-rule="evenodd" clip-rule="evenodd" d="M324.01 7.45142C391.255 25.3979 420.876 100.197 469.683 149.814C508.228 188.999 561.975 215.206 579.589 267.272C597.3 319.625 569.627 373.285 563.879 428.253C556.044 503.167 599.33 601.18 539.837 647.375C480.917 693.126 394.811 638.003 324.01 614.507C273.528 597.754 238.082 558.587 192.04 531.956C138.097 500.755 65.4015 497.66 31.5443 445.343C-5.41385 388.234 -5.01065 314.413 8.05384 247.654C22.4004 174.345 48.7897 98.5637 108.256 53.3549C168.258 7.73926 251.187 -11.984 324.01 7.45142Z" fill="url(#paint2_linear_455_2)" fill-opacity="0.04"/>
<defs>
<linearGradient id="paint0_linear_455_2" x1="982.168" y1="598" x2="982.168" y2="1306.66" gradientUnits="userSpaceOnUse">
<stop/>
<stop offset="1" stop-color="#C4C4C4" stop-opacity="0.12"/>
</linearGradient>
<linearGradient id="paint1_linear_455_2" x1="401.366" y1="1200" x2="401.366" y2="1839.57" gradientUnits="userSpaceOnUse">
<stop/>
<stop offset="1" stop-color="#C4C4C4" stop-opacity="0.12"/>
</linearGradient>
<linearGradient id="paint2_linear_455_2" x1="292.715" y1="0" x2="292.715" y2="664.99" gradientUnits="userSpaceOnUse">
<stop/>
<stop offset="1" stop-color="#C4C4C4" stop-opacity="0.12"/>
</linearGradient>
</defs>
</svg>
