<svg width="30" height="30" viewBox="0 0 30 30" fill="none" xmlns="http://www.w3.org/2000/svg">
<path fill-rule="evenodd" clip-rule="evenodd" d="M15.0796 0.738701C6.84031 0.738701 0.159119 7.41841 0.159119 15.6592C0.159119 22.2512 4.43428 27.844 10.3626 29.8169C11.1083 29.955 11.3821 29.4932 11.3821 29.0991C11.3821 28.7436 11.3682 27.568 11.3618 26.3212C7.21093 27.2238 6.33504 24.5608 6.33504 24.5608C5.65632 22.8365 4.67839 22.3777 4.67839 22.3777C3.32466 21.4516 4.78044 21.4706 4.78044 21.4706C6.27871 21.5759 7.06762 23.0084 7.06762 23.0084C8.39838 25.2892 10.5581 24.6298 11.4095 24.2485C11.5437 23.2844 11.9301 22.626 12.3568 22.2534C9.04275 21.8763 5.55898 20.5967 5.55898 14.8796C5.55898 13.2509 6.14183 11.9199 7.09628 10.875C6.94137 10.499 6.43066 8.98142 7.24107 6.92624C7.24107 6.92624 8.494 6.52548 11.345 8.45589C12.5352 8.1253 13.8116 7.95951 15.0796 7.95358C16.3476 7.95951 17.625 8.1253 18.8173 8.45589C21.6651 6.52548 22.9163 6.92624 22.9163 6.92624C23.7285 8.98142 23.2178 10.499 23.0629 10.875C24.0195 11.9199 24.5982 13.2509 24.5982 14.8796C24.5982 20.6106 21.1077 21.8721 17.7853 22.2415C18.3205 22.7045 18.7973 23.6125 18.7973 25.0046C18.7973 27.001 18.7803 28.6077 18.7803 29.0991C18.7803 29.4964 19.0486 29.9617 19.8049 29.8152C25.7303 27.84 30 22.2492 30 15.6592C30 7.41841 23.3198 0.738701 15.0796 0.738701Z" fill="white"/>
</svg>
